<?xml version="1.0" encoding="UTF-8"?>
<!DOCTYPE svg PUBLIC "-//W3C//DTD SVG 1.1//EN" "http://www.w3.org/Graphics/SVG/1.1/DTD/svg11.dtd">
<!-- Creator: CorelDRAW X6 -->
<svg xmlns="http://www.w3.org/2000/svg" xml:space="preserve" width="72px" height="68px" version="1.1" style="shape-rendering:geometricPrecision; text-rendering:geometricPrecision; image-rendering:optimizeQuality; fill-rule:evenodd; clip-rule:evenodd"
viewBox="0 0 15 14"
 xmlns:xlink="http://www.w3.org/1999/xlink">
 <defs>
  <style type="text/css">
   <![CDATA[
    .fil1 {fill:#EF7F1A;fill-rule:nonzero}
    .fil2 {fill:#FEFEFE;fill-rule:nonzero}
    .fil0 {fill:#233D4B;fill-rule:nonzero}
   ]]>
  </style>
 </defs>
 <g id="Warstwa_x0020_1">
  <metadata id="CorelCorpID_0Corel-Layer"/>
  <path class="fil0" d="M3 0l-3 0 0 14 3 0 0 -6 1 0c1,0 1,0 1,0l3 5c0,0 1,1 1,1l3 0 -4 -6c0,-1 -1,-1 -1,-1 0,0 1,0 1,-1l4 -6 -3 0c-1,0 -1,0 -1,1l-3 5c0,0 -1,0 -1,0l-1 0 0 -6z"/>
  <path class="fil1" d="M15 13l-6 0c0,-1 0,-1 1,-2 0,0 1,-1 2,-2 1,0 1,-1 1,-1 0,0 0,0 0,-1 0,0 0,0 0,-1 0,0 0,0 -1,0 0,0 0,0 -1,0 0,0 0,0 0,1l-2 0c0,-1 0,-1 0,-1 0,0 0,-1 1,-1 0,0 1,0 1,0 1,0 1,0 2,0 0,0 1,0 1,1 0,0 0,1 0,1 0,0 0,1 0,1 0,0 -1,1 -1,1 0,0 -1,0 -1,1 0,0 0,0 0,0l3 0 0 2z"/>
  <path class="fil2" d="M12 13l-1 -2c0,0 0,0 0,1 0,0 -1,1 -1,2l3 0z"/>
 </g>
</svg>
