<?xml version="1.0" encoding="UTF-8"?>
<!DOCTYPE svg PUBLIC "-//W3C//DTD SVG 1.1//EN" "http://www.w3.org/Graphics/SVG/1.1/DTD/svg11.dtd">
<!-- Creator: CorelDRAW X6 -->
<svg xmlns="http://www.w3.org/2000/svg" xml:space="preserve" width="166px" height="166px" version="1.1" style="shape-rendering:geometricPrecision; text-rendering:geometricPrecision; image-rendering:optimizeQuality; fill-rule:evenodd; clip-rule:evenodd"
viewBox="0 0 26 26"
 xmlns:xlink="http://www.w3.org/1999/xlink">
 <defs>
  <style type="text/css">
   <![CDATA[
    .fil0 {fill:#F58221}
   ]]>
  </style>
 </defs>
 <g id="Warstwa_x0020_1">
  <metadata id="CorelCorpID_0Corel-Layer"/>
  <path class="fil0" d="M0 13c0,-7 6,-13 13,-13 7,0 13,6 13,13 0,7 -6,13 -13,13 -7,0 -13,-6 -13,-13zm17 -5l-2 0c-1,0 -1,1 -1,1l0 2 3 0 0 3 -3 0 0 8 -3 0 0 -8 -3 0 0 -3 3 0 0 -2c0,-3 2,-4 4,-4l2 0 0 3 0 0z"/>
 </g>
</svg>
