<?xml version="1.0" encoding="UTF-8"?>
<!DOCTYPE svg PUBLIC "-//W3C//DTD SVG 1.1//EN" "http://www.w3.org/Graphics/SVG/1.1/DTD/svg11.dtd">
<!-- Creator: CorelDRAW X6 -->
<svg xmlns="http://www.w3.org/2000/svg" xml:space="preserve" width="166px" height="166px" version="1.1" style="shape-rendering:geometricPrecision; text-rendering:geometricPrecision; image-rendering:optimizeQuality; fill-rule:evenodd; clip-rule:evenodd"
viewBox="0 0 46 46"
 xmlns:xlink="http://www.w3.org/1999/xlink">
 <defs>
  <style type="text/css">
   <![CDATA[
    .fil0 {fill:#F58221}
   ]]>
  </style>
 </defs>
 <g id="Warstwa_x0020_1">
  <metadata id="CorelCorpID_0Corel-Layer"/>
  <g id="_221487856">
   <path class="fil0" d="M30 12l-14 0c-2,0 -4,2 -4,4l0 14c0,2 2,4 4,4l14 0c2,0 4,-2 4,-4l0 -14c0,-2 -2,-4 -4,-4zm-7 18c-4,0 -7,-3 -7,-7 0,-4 3,-7 7,-7 4,0 7,3 7,7 0,4 -3,7 -7,7zm7 -13c-1,0 -2,-1 -2,-2 0,-1 1,-2 2,-2 1,0 2,1 2,2 0,1 -1,2 -2,2z"/>
   <path class="fil0" d="M23 19c-2,0 -4,2 -4,4 0,2 2,4 4,4 2,0 4,-2 4,-4 0,-2 -2,-4 -4,-4z"/>
   <path class="fil0" d="M23 0c-13,0 -23,10 -23,23 0,13 10,23 23,23 13,0 23,-10 23,-23 0,-13 -10,-23 -23,-23zm14 30c0,4 -3,7 -7,7l-14 0c-4,0 -7,-3 -7,-7l0 -14c0,-4 3,-7 7,-7l14 0c4,0 7,3 7,7l0 14z"/>
  </g>
 </g>
</svg>
