<?xml version="1.0" encoding="UTF-8"?>
<!DOCTYPE svg PUBLIC "-//W3C//DTD SVG 1.1//EN" "http://www.w3.org/Graphics/SVG/1.1/DTD/svg11.dtd">
<!-- Creator: CorelDRAW X6 -->
<svg xmlns="http://www.w3.org/2000/svg" xml:space="preserve" width="111.578mm" height="105mm" version="1.1" style="shape-rendering:geometricPrecision; text-rendering:geometricPrecision; image-rendering:optimizeQuality; fill-rule:evenodd; clip-rule:evenodd"
viewBox="0 0 12856 12098"
 xmlns:xlink="http://www.w3.org/1999/xlink">
 <defs>
  <style type="text/css">
   <![CDATA[
    .fil1 {fill:#EF7F1A;fill-rule:nonzero}
    .fil0 {fill:#233D4B;fill-rule:nonzero}
   ]]>
  </style>
 </defs>
 <g id="Warstwa_x0020_1">
  <metadata id="CorelCorpID_0Corel-Layer"/>
  <g id="_716518976">
   <path class="fil0" d="M2805 0l-2805 0 0 12098 2805 0 0 -5147 680 0c523,0 797,116 996,423l2738 4210c224,332 456,514 1095,514l2506 0 -731 -1123 -2187 0c57,-488 230,-949 517,-1379 109,-163 253,-337 433,-522l-1684 -2588c-290,-456 -631,-708 -1054,-866 290,-158 564,-373 821,-730l3585 -4890 -2440 0c-556,0 -913,124 -1211,556l-2722 3953c-183,257 -481,390 -896,390l-448 0 0 -4898z"/>
   <path class="fil1" d="M12856 10975l-2767 0 -1237 -1901c297,-305 692,-640 1185,-1005 484,-360 794,-632 931,-819 136,-187 203,-364 203,-531 0,-181 -66,-336 -201,-465 -134,-129 -303,-192 -506,-192 -210,0 -383,66 -517,199 -134,134 -224,368 -270,705l-1651 -134c65,-466 184,-828 357,-1090 173,-261 416,-461 730,-600 315,-140 751,-209 1307,-209 581,0 1032,66 1355,199 322,131 577,335 761,609 185,275 278,582 278,922 0,361 -106,707 -318,1037 -212,329 -597,691 -1158,1086 -332,230 -555,391 -667,483 -112,93 -243,212 -396,361l2579 0 0 1344z"/>
  </g>
 </g>
</svg>
