<?xml version="1.0" encoding="UTF-8"?>
<!DOCTYPE svg PUBLIC "-//W3C//DTD SVG 1.1//EN" "http://www.w3.org/Graphics/SVG/1.1/DTD/svg11.dtd">
<!-- Creator: CorelDRAW X6 -->
<svg xmlns="http://www.w3.org/2000/svg" xml:space="preserve" width="25.7649mm" height="24.2461mm" version="1.1" style="shape-rendering:geometricPrecision; text-rendering:geometricPrecision; image-rendering:optimizeQuality; fill-rule:evenodd; clip-rule:evenodd"
viewBox="0 0 424 399"
 xmlns:xlink="http://www.w3.org/1999/xlink">
 <defs>
  <style type="text/css">
   <![CDATA[
    .fil1 {fill:#EF7F1A;fill-rule:nonzero}
    .fil0 {fill:#233D4B;fill-rule:nonzero}
   ]]>
  </style>
 </defs>
 <g id="Warstwa_x0020_1">
  <metadata id="CorelCorpID_0Corel-Layer"/>
  <g id="_744712576">
   <path class="fil0" d="M93 0l-93 0 0 399 93 0 0 -170 22 0c17,0 26,4 33,14l90 139c7,11 15,17 36,17l83 0 -24 -37 -72 0c2,-16 8,-31 17,-45 4,-5 8,-11 14,-17l-56 -85c-10,-15 -21,-23 -35,-29 10,-5 19,-12 27,-24l118 -161 -80 0c-18,0 -30,4 -40,18l-90 130c-6,8 -16,13 -30,13l-15 0 0 -162z"/>
   <path class="fil1" d="M424 362l-91 0 -41 -63c10,-10 23,-21 39,-33 16,-12 26,-21 31,-27 4,-6 7,-12 7,-18 0,-6 -2,-11 -7,-15 -4,-4 -10,-6 -17,-6 -7,0 -13,2 -17,7 -4,4 -7,12 -9,23l-54 -4c2,-15 6,-27 12,-36 6,-9 14,-15 24,-20 10,-5 25,-7 43,-7 19,0 34,2 45,7 11,4 19,11 25,20 6,9 9,19 9,30 0,12 -4,23 -10,34 -7,11 -20,23 -38,36 -11,8 -18,13 -22,16 -4,3 -8,7 -13,12l85 0 0 44z"/>
  </g>
 </g>
</svg>
